<svg width="428" height="264" viewBox="0 0 428 264" fill="none" xmlns="http://www.w3.org/2000/svg">
<rect x="303.323" y="186.853" width="6.76471" height="6.76471" stroke="#DCC599"/>
<mask id="mask0_27_324" style="mask-type:alpha" maskUnits="userSpaceOnUse" x="302" y="186" width="9" height="9">
<rect x="303.323" y="186.853" width="6.76471" height="6.76471" fill="#D9D9D9" stroke="#DCC599"/>
</mask>
<g mask="url(#mask0_27_324)">
<circle cx="310.588" cy="194.118" r="7.26471" stroke="#DCC599"/>
</g>
<rect x="303.323" y="194.618" width="6.76471" height="6.76471" stroke="#DCC599"/>
<mask id="mask1_27_324" style="mask-type:alpha" maskUnits="userSpaceOnUse" x="302" y="194" width="9" height="8">
<rect x="303.323" y="194.618" width="6.76471" height="6.76471" fill="#D9D9D9" stroke="#DCC599"/>
</mask>
<g mask="url(#mask1_27_324)">
<circle cx="310.588" cy="194.118" r="7.26471" stroke="#DCC599"/>
</g>
<rect x="311.088" y="186.853" width="14.5294" height="14.5294" stroke="#DCC599"/>
<mask id="mask2_27_324" style="mask-type:alpha" maskUnits="userSpaceOnUse" x="310" y="186" width="17" height="16">
<rect x="311.088" y="186.853" width="14.5294" height="14.5294" fill="#D9D9D9" stroke="#DCC599"/>
</mask>
<g mask="url(#mask2_27_324)">
<circle cx="310.589" cy="186.353" r="15.0294" stroke="#DCC599"/>
</g>
<rect x="303.323" y="163.559" width="22.2941" height="22.2941" stroke="#DCC599"/>
<mask id="mask3_27_324" style="mask-type:alpha" maskUnits="userSpaceOnUse" x="302" y="163" width="25" height="24">
<rect x="303.323" y="163.559" width="22.2941" height="22.2941" fill="#D9D9D9" stroke="#DCC599"/>
</mask>
<g mask="url(#mask3_27_324)">
<circle cx="302.824" cy="186.353" r="22.7941" stroke="#DCC599"/>
</g>
<rect x="264.5" y="163.559" width="37.8235" height="37.8235" stroke="#DCC599"/>
<mask id="mask4_27_324" style="mask-type:alpha" maskUnits="userSpaceOnUse" x="264" y="163" width="39" height="39">
<rect x="264.5" y="163.559" width="37.8235" height="37.8235" fill="#D9D9D9" stroke="#DCC599"/>
</mask>
<g mask="url(#mask4_27_324)">
<circle cx="302.824" cy="201.882" r="38.3235" stroke="#DCC599"/>
</g>
<rect x="264.5" y="202.382" width="61.1176" height="61.1176" stroke="#DCC599"/>
<mask id="mask5_27_324" style="mask-type:alpha" maskUnits="userSpaceOnUse" x="264" y="201" width="63" height="63">
<rect x="264.5" y="202.382" width="61.1176" height="61.1176" fill="#D9D9D9" stroke="#DCC599"/>
</mask>
<g mask="url(#mask5_27_324)">
<circle cx="326.118" cy="201.882" r="61.6176" stroke="#DCC599"/>
</g>
<rect x="326.617" y="163.559" width="99.9412" height="99.9412" stroke="#DCC599"/>
<mask id="mask6_27_324" style="mask-type:alpha" maskUnits="userSpaceOnUse" x="326" y="163" width="102" height="101">
<rect x="326.617" y="163.559" width="99.9412" height="99.9412" fill="#D9D9D9" stroke="#DCC599"/>
</mask>
<g mask="url(#mask6_27_324)">
<circle cx="326.118" cy="163.059" r="100.441" stroke="#DCC599"/>
</g>
<rect x="264.5" y="0.5" width="162.059" height="162.059" stroke="#DCC599"/>
<mask id="mask7_27_324" style="mask-type:alpha" maskUnits="userSpaceOnUse" x="264" y="0" width="164" height="164">
<rect x="264.5" y="0.5" width="162.059" height="162.059" fill="#D9D9D9" stroke="#DCC599"/>
</mask>
<g mask="url(#mask7_27_324)">
<circle cx="264" cy="163.059" r="162.559" stroke="#DCC599"/>
</g>
<rect x="0.5" y="0.5" width="263" height="263" stroke="#DCC599"/>
<mask id="mask8_27_324" style="mask-type:alpha" maskUnits="userSpaceOnUse" x="0" y="0" width="264" height="264">
<rect x="0.5" y="0.5" width="263" height="263" fill="#D9D9D9" stroke="#DCC599"/>
</mask>
<g mask="url(#mask8_27_324)">
<circle cx="264" cy="264" r="263.5" stroke="#DCC599"/>
</g>
</svg>
