<svg xmlns="http://www.w3.org/2000/svg" xmlns:xlink="http://www.w3.org/1999/xlink" width="500" zoomAndPan="magnify" viewBox="0 0 375 374.999991" height="500" preserveAspectRatio="xMidYMid meet" version="1.0"><defs><g/><clipPath id="049b7b2a70"><path d="M 37.5 37.5 L 337.5 37.5 L 337.5 337.5 L 37.5 337.5 Z M 37.5 37.5 " clip-rule="nonzero"/></clipPath><clipPath id="3a5a681dc8"><path d="M 187.5 37.5 C 104.65625 37.5 37.5 104.65625 37.5 187.5 C 37.5 270.34375 104.65625 337.5 187.5 337.5 C 270.34375 337.5 337.5 270.34375 337.5 187.5 C 337.5 104.65625 270.34375 37.5 187.5 37.5 Z M 187.5 37.5 " clip-rule="nonzero"/></clipPath></defs><rect x="-37.5" width="450" fill="#ffffff" y="-37.499999" height="449.999989" fill-opacity="1"/><rect x="-37.5" width="450" fill="#ffffff" y="-37.499999" height="449.999989" fill-opacity="1"/><g clip-path="url(#049b7b2a70)"><g clip-path="url(#3a5a681dc8)"><path fill="#dcc599" d="M 37.5 37.5 L 337.5 37.5 L 337.5 337.5 L 37.5 337.5 Z M 37.5 37.5 " fill-opacity="1" fill-rule="nonzero"/></g></g><g fill="#ffffff" fill-opacity="1"><g transform="translate(84.115743, 221.68129)"><g><path d="M 51.375 -101.6875 C 64.957031 -101.6875 71.75 -96.128906 71.75 -85.015625 C 71.75 -83.066406 70.769531 -79.363281 68.8125 -73.90625 C 66.863281 -68.457031 63.210938 -61.28125 57.859375 -52.375 C 52.515625 -43.476562 46.238281 -35.378906 39.03125 -28.078125 C 34.914062 -23.242188 32.859375 -20.644531 32.859375 -20.28125 C 32.859375 -19.925781 33.015625 -19.75 33.328125 -19.75 C 38.679688 -26.125 46.367188 -34.453125 56.390625 -44.734375 C 66.421875 -55.023438 75.269531 -63.59375 82.9375 -70.4375 C 90.601562 -77.28125 98.882812 -83.503906 107.78125 -89.109375 C 116.675781 -94.710938 123.59375 -97.515625 128.53125 -97.515625 C 133.46875 -97.515625 137.425781 -96.691406 140.40625 -95.046875 C 143.394531 -93.398438 144.890625 -90.984375 144.890625 -87.796875 C 144.890625 -85.941406 144.269531 -85.015625 143.03125 -85.015625 C 135.625 -84.804688 127.238281 -82.3125 117.875 -77.53125 C 108.519531 -72.75 99.546875 -66.832031 90.953125 -59.78125 C 82.367188 -52.738281 73.625 -45.101562 64.71875 -36.875 C 55.820312 -28.644531 47.878906 -21.035156 40.890625 -14.046875 C 24.535156 2.316406 14.039062 10.5 9.40625 10.5 C 8.6875 10.5 8.019531 10.34375 7.40625 10.03125 C 6.789062 9.519531 5.8125 8.828125 4.46875 7.953125 C 3.132812 7.078125 2.054688 6.351562 1.234375 5.78125 C 0.410156 5.21875 0 4.601562 0 3.9375 C 0 3.269531 0.617188 2.265625 1.859375 0.921875 C 13.785156 -11.421875 23.8125 -24.070312 31.9375 -37.03125 C 39.757812 -49.582031 46.5 -61.820312 52.15625 -73.75 L 55.234375 -80.390625 C 57.191406 -84.503906 58.171875 -87.304688 58.171875 -88.796875 C 58.171875 -90.285156 57.757812 -91.03125 56.9375 -91.03125 C 54.570312 -91.03125 49.609375 -88.921875 42.046875 -84.703125 C 34.484375 -80.492188 26.457031 -74.941406 17.96875 -68.046875 C 9.488281 -61.148438 3.707031 -54.769531 0.625 -48.90625 C -0.207031 -48.082031 -0.800781 -47.671875 -1.15625 -47.671875 C -1.519531 -47.671875 -1.703125 -47.984375 -1.703125 -48.609375 C -1.703125 -51.796875 -0.109375 -56.320312 3.078125 -62.1875 C 6.273438 -68.050781 10.289062 -73.9375 15.125 -79.84375 C 19.957031 -85.757812 25.691406 -90.878906 32.328125 -95.203125 C 38.960938 -99.523438 45.3125 -101.6875 51.375 -101.6875 Z M 51.375 -101.6875 "/></g></g></g><g fill="#ffffff" fill-opacity="1"><g transform="translate(154.474801, 221.68129)"><g/></g></g><g fill="#ffffff" fill-opacity="1"><g transform="translate(193.048853, 221.68129)"><g><path d="M 3.390625 -75.296875 C 1.953125 -75.296875 -0.585938 -76.679688 -4.234375 -79.453125 C -7.890625 -82.234375 -9.71875 -84.5 -9.71875 -86.25 C -9.71875 -88 -8.484375 -89.335938 -6.015625 -90.265625 C -1.285156 -92.316406 3.492188 -93.910156 8.328125 -95.046875 L 10.640625 -95.515625 C 11.160156 -95.710938 11.625 -95.8125 12.03125 -95.8125 C 12.75 -95.8125 13.109375 -95.425781 13.109375 -94.65625 C 13.109375 -93.882812 13.519531 -93.5 14.34375 -93.5 C 15.164062 -93.5 18.921875 -94.222656 25.609375 -95.671875 C 45.671875 -99.785156 64.648438 -101.84375 82.546875 -101.84375 C 93.035156 -101.84375 101.957031 -100.582031 109.3125 -98.0625 C 116.675781 -95.539062 120.359375 -91.960938 120.359375 -87.328125 C 120.359375 -86.304688 118.941406 -85.796875 116.109375 -85.796875 C 113.273438 -85.796875 109.878906 -85.742188 105.921875 -85.640625 C 101.960938 -85.535156 97 -85.378906 91.03125 -85.171875 C 77.039062 -84.554688 70.046875 -83.164062 70.046875 -81 C 70.046875 -80.59375 70.148438 -80.285156 70.359375 -80.078125 C 70.359375 -79.566406 69.789062 -78.71875 68.65625 -77.53125 C 67.53125 -76.351562 65.785156 -74.476562 63.421875 -71.90625 C 61.054688 -69.332031 56.628906 -64.421875 50.140625 -57.171875 C 43.660156 -49.921875 37.695312 -43.101562 32.25 -36.71875 C 18.15625 -20.0625 8.4375 -7.203125 3.09375 1.859375 C 2.78125 5.347656 1.75 7.09375 0 7.09375 C -1.332031 7.09375 -3.101562 6.0625 -5.3125 4 C -7.53125 1.945312 -8.640625 -0.566406 -8.640625 -3.546875 C -8.640625 -9.097656 -4.472656 -16.914062 3.859375 -27 C 12.191406 -37.082031 28.648438 -53.285156 53.234375 -75.609375 C 54.367188 -76.734375 55.394531 -77.660156 56.3125 -78.390625 C 57.757812 -79.515625 58.484375 -80.179688 58.484375 -80.390625 C 58.484375 -80.597656 58.171875 -80.703125 57.546875 -80.703125 C 56.929688 -80.703125 55.695312 -80.597656 53.84375 -80.390625 L 6.640625 -75.765625 C 5.921875 -75.453125 4.835938 -75.296875 3.390625 -75.296875 Z M 3.390625 -75.296875 "/></g></g></g><g fill="#ffffff" fill-opacity="1"><g transform="translate(140.224874, 264.694142)"><g><path d="M 1.640625 -11.5625 L 3.515625 -1.5 L 5.390625 -11.5625 L 6.578125 -11.5625 L 4.40625 0 L 2.515625 0 L 0.328125 -11.5625 Z M 1.640625 -11.5625 "/></g></g></g><g fill="#ffffff" fill-opacity="1"><g transform="translate(148.200795, 264.694142)"><g><path d="M 4.765625 -6.4375 L 4.765625 -5.28125 L 1.953125 -5.28125 L 1.953125 -1.171875 L 5.421875 -1.171875 L 5.421875 0 L 0.65625 0 L 0.65625 -11.5625 L 5.421875 -11.5625 L 5.421875 -10.390625 L 1.953125 -10.390625 L 1.953125 -6.4375 Z M 4.765625 -6.4375 "/></g></g></g><g fill="#ffffff" fill-opacity="1"><g transform="translate(155.21904, 264.694142)"><g><path d="M 1.796875 0 L 0.640625 0 L 0.640625 -11.5625 L 2.28125 -11.5625 L 4.953125 -3.203125 L 4.953125 -11.5625 L 6.09375 -11.5625 L 6.09375 0 L 4.75 0 L 1.796875 -9.34375 Z M 1.796875 0 "/></g></g></g><g fill="#ffffff" fill-opacity="1"><g transform="translate(163.046348, 264.694142)"><g><path d="M 0.65625 0 L 0.65625 -11.5625 L 1.953125 -11.5625 L 1.953125 -1.171875 L 5.25 -1.171875 L 5.25 0 Z M 0.65625 0 "/></g></g></g><g fill="#ffffff" fill-opacity="1"><g transform="translate(169.684822, 264.694142)"><g><path d="M 1.96875 -2.328125 L 1.515625 0 L 0.328125 0 L 2.546875 -11.5625 L 4.40625 -11.5625 L 6.625 0 L 5.328125 0 L 4.890625 -2.328125 Z M 2.125 -3.4375 L 4.703125 -3.4375 L 3.40625 -10.109375 Z M 2.125 -3.4375 "/></g></g></g><g fill="#ffffff" fill-opacity="1"><g transform="translate(177.726788, 264.694142)"><g/></g></g><g fill="#ffffff" fill-opacity="1"><g transform="translate(181.360135, 264.694142)"><g><path d="M 2.34375 0 L 2.34375 -10.390625 L 0.21875 -10.390625 L 0.21875 -11.5625 L 5.765625 -11.5625 L 5.765625 -10.390625 L 3.640625 -10.390625 L 3.640625 0 Z M 2.34375 0 "/></g></g></g><g fill="#ffffff" fill-opacity="1"><g transform="translate(188.427911, 264.694142)"><g><path d="M 1.875 -2.71875 C 1.875 -2.195312 1.984375 -1.789062 2.203125 -1.5 C 2.421875 -1.207031 2.765625 -1.0625 3.234375 -1.0625 C 3.703125 -1.0625 4.039062 -1.207031 4.25 -1.5 C 4.46875 -1.789062 4.578125 -2.195312 4.578125 -2.71875 L 4.578125 -11.5625 L 5.78125 -11.5625 L 5.78125 -2.796875 C 5.78125 -1.910156 5.570312 -1.203125 5.15625 -0.671875 C 4.738281 -0.140625 4.082031 0.125 3.1875 0.125 C 2.300781 0.125 1.648438 -0.140625 1.234375 -0.671875 C 0.816406 -1.203125 0.609375 -1.910156 0.609375 -2.796875 L 0.609375 -11.5625 L 1.875 -11.5625 Z M 1.875 -2.71875 "/></g></g></g><g fill="#ffffff" fill-opacity="1"><g transform="translate(195.891959, 264.694142)"><g><path d="M 0.5625 -8.765625 C 0.5625 -9.660156 0.773438 -10.367188 1.203125 -10.890625 C 1.640625 -11.410156 2.304688 -11.671875 3.203125 -11.671875 C 4.097656 -11.671875 4.765625 -11.410156 5.203125 -10.890625 C 5.640625 -10.367188 5.859375 -9.660156 5.859375 -8.765625 L 5.859375 -2.796875 C 5.859375 -1.910156 5.640625 -1.203125 5.203125 -0.671875 C 4.765625 -0.148438 4.097656 0.109375 3.203125 0.109375 C 2.304688 0.109375 1.640625 -0.148438 1.203125 -0.671875 C 0.773438 -1.203125 0.5625 -1.910156 0.5625 -2.796875 Z M 1.828125 -2.71875 C 1.828125 -2.195312 1.941406 -1.789062 2.171875 -1.5 C 2.398438 -1.207031 2.742188 -1.0625 3.203125 -1.0625 C 3.679688 -1.0625 4.03125 -1.207031 4.25 -1.5 C 4.46875 -1.789062 4.578125 -2.195312 4.578125 -2.71875 L 4.578125 -8.828125 C 4.578125 -9.359375 4.46875 -9.769531 4.25 -10.0625 C 4.03125 -10.351562 3.679688 -10.5 3.203125 -10.5 C 2.742188 -10.5 2.398438 -10.351562 2.171875 -10.0625 C 1.941406 -9.769531 1.828125 -9.359375 1.828125 -8.828125 Z M 1.828125 -2.71875 "/></g></g></g><g fill="#ffffff" fill-opacity="1"><g transform="translate(203.389035, 264.694142)"><g><path d="M 4.921875 -0.015625 L 3.6875 -0.015625 L 1.765625 -9.21875 L 1.765625 0 L 0.640625 0 L 0.640625 -11.5625 L 2.4375 -11.5625 L 4.34375 -2.328125 L 6.171875 -11.5625 L 7.984375 -11.5625 L 7.984375 0 L 6.75 0 L 6.75 -9.296875 Z M 4.921875 -0.015625 "/></g></g></g><g fill="#ffffff" fill-opacity="1"><g transform="translate(213.098677, 264.694142)"><g><path d="M 1.96875 -2.328125 L 1.515625 0 L 0.328125 0 L 2.546875 -11.5625 L 4.40625 -11.5625 L 6.625 0 L 5.328125 0 L 4.890625 -2.328125 Z M 2.125 -3.4375 L 4.703125 -3.4375 L 3.40625 -10.109375 Z M 2.125 -3.4375 "/></g></g></g><g fill="#ffffff" fill-opacity="1"><g transform="translate(221.14064, 264.694142)"><g><path d="M 0.65625 0 L 0.65625 -11.5625 L 1.953125 -11.5625 L 1.953125 -1.171875 L 5.25 -1.171875 L 5.25 0 Z M 0.65625 0 "/></g></g></g><g fill="#ffffff" fill-opacity="1"><g transform="translate(227.779111, 264.694142)"><g><path d="M 1.96875 -2.328125 L 1.515625 0 L 0.328125 0 L 2.546875 -11.5625 L 4.40625 -11.5625 L 6.625 0 L 5.328125 0 L 4.890625 -2.328125 Z M 2.125 -3.4375 L 4.703125 -3.4375 L 3.40625 -10.109375 Z M 2.125 -3.4375 "/></g></g></g><g fill="#ffffff" fill-opacity="1"><g transform="translate(133.256849, 279.647357)"><g><path d="M 2.90625 -5.71875 C 3.300781 -5.71875 3.640625 -5.644531 3.921875 -5.5 C 4.203125 -5.363281 4.414062 -5.160156 4.5625 -4.890625 C 4.707031 -4.628906 4.78125 -4.320312 4.78125 -3.96875 C 4.78125 -3.613281 4.707031 -3.304688 4.5625 -3.046875 C 4.414062 -2.785156 4.203125 -2.582031 3.921875 -2.4375 C 3.640625 -2.300781 3.300781 -2.234375 2.90625 -2.234375 L 1.53125 -2.234375 L 1.53125 0 L 0.859375 0 L 0.859375 -5.71875 Z M 2.890625 -2.8125 C 3.679688 -2.8125 4.078125 -3.195312 4.078125 -3.96875 C 4.078125 -4.75 3.679688 -5.140625 2.890625 -5.140625 L 1.53125 -5.140625 L 1.53125 -2.8125 Z M 2.890625 -2.8125 "/></g></g></g><g fill="#ffffff" fill-opacity="1"><g transform="translate(143.191857, 279.647357)"><g><path d="M 4.5 -3.390625 L 4.5 -5.71875 L 5.171875 -5.71875 L 5.171875 0 L 4.5 0 L 4.5 -2.828125 L 1.53125 -2.828125 L 1.53125 0 L 0.859375 0 L 0.859375 -5.71875 L 1.53125 -5.71875 L 1.53125 -3.390625 Z M 4.5 -3.390625 "/></g></g></g><g fill="#ffffff" fill-opacity="1"><g transform="translate(153.958894, 279.647357)"><g><path d="M 3.140625 0.078125 C 2.640625 0.078125 2.195312 -0.0234375 1.8125 -0.234375 C 1.425781 -0.453125 1.125 -0.78125 0.90625 -1.21875 C 0.6875 -1.65625 0.578125 -2.203125 0.578125 -2.859375 C 0.578125 -3.515625 0.6875 -4.0625 0.90625 -4.5 C 1.125 -4.9375 1.425781 -5.257812 1.8125 -5.46875 C 2.195312 -5.6875 2.640625 -5.796875 3.140625 -5.796875 C 3.628906 -5.796875 4.066406 -5.6875 4.453125 -5.46875 C 4.835938 -5.257812 5.140625 -4.9375 5.359375 -4.5 C 5.585938 -4.0625 5.703125 -3.515625 5.703125 -2.859375 C 5.703125 -2.203125 5.585938 -1.65625 5.359375 -1.21875 C 5.140625 -0.78125 4.835938 -0.453125 4.453125 -0.234375 C 4.066406 -0.0234375 3.628906 0.078125 3.140625 0.078125 Z M 3.140625 -0.546875 C 3.734375 -0.546875 4.1875 -0.726562 4.5 -1.09375 C 4.820312 -1.46875 4.984375 -2.054688 4.984375 -2.859375 C 4.984375 -3.660156 4.820312 -4.242188 4.5 -4.609375 C 4.1875 -4.984375 3.734375 -5.171875 3.140625 -5.171875 C 1.910156 -5.171875 1.296875 -4.398438 1.296875 -2.859375 C 1.296875 -1.316406 1.910156 -0.546875 3.140625 -0.546875 Z M 3.140625 -0.546875 "/></g></g></g><g fill="#ffffff" fill-opacity="1"><g transform="translate(164.952493, 279.647357)"><g><path d="M 4.453125 -5.71875 L 4.453125 -5.140625 L 2.671875 -5.140625 L 2.671875 0 L 2 0 L 2 -5.140625 L 0.21875 -5.140625 L 0.21875 -5.71875 Z M 4.453125 -5.71875 "/></g></g></g><g fill="#ffffff" fill-opacity="1"><g transform="translate(174.344533, 279.647357)"><g><path d="M 3.140625 0.078125 C 2.640625 0.078125 2.195312 -0.0234375 1.8125 -0.234375 C 1.425781 -0.453125 1.125 -0.78125 0.90625 -1.21875 C 0.6875 -1.65625 0.578125 -2.203125 0.578125 -2.859375 C 0.578125 -3.515625 0.6875 -4.0625 0.90625 -4.5 C 1.125 -4.9375 1.425781 -5.257812 1.8125 -5.46875 C 2.195312 -5.6875 2.640625 -5.796875 3.140625 -5.796875 C 3.628906 -5.796875 4.066406 -5.6875 4.453125 -5.46875 C 4.835938 -5.257812 5.140625 -4.9375 5.359375 -4.5 C 5.585938 -4.0625 5.703125 -3.515625 5.703125 -2.859375 C 5.703125 -2.203125 5.585938 -1.65625 5.359375 -1.21875 C 5.140625 -0.78125 4.835938 -0.453125 4.453125 -0.234375 C 4.066406 -0.0234375 3.628906 0.078125 3.140625 0.078125 Z M 3.140625 -0.546875 C 3.734375 -0.546875 4.1875 -0.726562 4.5 -1.09375 C 4.820312 -1.46875 4.984375 -2.054688 4.984375 -2.859375 C 4.984375 -3.660156 4.820312 -4.242188 4.5 -4.609375 C 4.1875 -4.984375 3.734375 -5.171875 3.140625 -5.171875 C 1.910156 -5.171875 1.296875 -4.398438 1.296875 -2.859375 C 1.296875 -1.316406 1.910156 -0.546875 3.140625 -0.546875 Z M 3.140625 -0.546875 "/></g></g></g><g fill="#ffffff" fill-opacity="1"><g transform="translate(185.338129, 279.647357)"><g><path d="M 3 0.078125 C 2.519531 0.078125 2.097656 -0.03125 1.734375 -0.25 C 1.367188 -0.46875 1.082031 -0.796875 0.875 -1.234375 C 0.675781 -1.671875 0.578125 -2.210938 0.578125 -2.859375 C 0.578125 -3.492188 0.6875 -4.03125 0.90625 -4.46875 C 1.125 -4.914062 1.425781 -5.25 1.8125 -5.46875 C 2.207031 -5.6875 2.660156 -5.796875 3.171875 -5.796875 C 3.710938 -5.796875 4.160156 -5.695312 4.515625 -5.5 C 4.867188 -5.300781 5.117188 -5.007812 5.265625 -4.625 L 4.828125 -4.359375 L 4.734375 -4.359375 C 4.578125 -4.660156 4.375 -4.875 4.125 -5 C 3.875 -5.125 3.554688 -5.1875 3.171875 -5.1875 C 1.921875 -5.1875 1.296875 -4.410156 1.296875 -2.859375 C 1.296875 -2.046875 1.453125 -1.453125 1.765625 -1.078125 C 2.078125 -0.710938 2.519531 -0.53125 3.09375 -0.53125 C 3.613281 -0.53125 4 -0.644531 4.25 -0.875 C 4.507812 -1.113281 4.640625 -1.488281 4.640625 -2 L 4.640625 -2.5 L 3.015625 -2.5 L 3.015625 -3.046875 L 5.296875 -3.046875 L 5.296875 0 L 4.671875 0 L 4.671875 -0.765625 L 4.59375 -0.78125 C 4.445312 -0.488281 4.238281 -0.269531 3.96875 -0.125 C 3.695312 0.0078125 3.375 0.078125 3 0.078125 Z M 3 0.078125 "/></g></g></g><g fill="#ffffff" fill-opacity="1"><g transform="translate(196.003606, 279.647357)"><g><path d="M 0.859375 0 L 0.859375 -5.71875 L 2.9375 -5.71875 C 3.320312 -5.71875 3.644531 -5.648438 3.90625 -5.515625 C 4.164062 -5.390625 4.359375 -5.210938 4.484375 -4.984375 C 4.617188 -4.753906 4.6875 -4.484375 4.6875 -4.171875 C 4.6875 -3.816406 4.597656 -3.523438 4.421875 -3.296875 C 4.242188 -3.066406 3.96875 -2.894531 3.59375 -2.78125 L 3.59375 -2.6875 C 3.78125 -2.613281 3.929688 -2.5 4.046875 -2.34375 C 4.160156 -2.1875 4.269531 -1.957031 4.375 -1.65625 L 4.890625 0 L 4.203125 0 L 3.640625 -1.75 C 3.566406 -1.957031 3.484375 -2.117188 3.390625 -2.234375 C 3.304688 -2.347656 3.195312 -2.429688 3.0625 -2.484375 C 2.925781 -2.535156 2.753906 -2.5625 2.546875 -2.5625 L 1.53125 -2.5625 L 1.53125 0 Z M 2.921875 -3.140625 C 3.273438 -3.140625 3.539062 -3.21875 3.71875 -3.375 C 3.894531 -3.539062 3.984375 -3.796875 3.984375 -4.140625 C 3.984375 -4.472656 3.894531 -4.722656 3.71875 -4.890625 C 3.539062 -5.054688 3.273438 -5.140625 2.921875 -5.140625 L 1.53125 -5.140625 L 1.53125 -3.140625 Z M 2.921875 -3.140625 "/></g></g></g><g fill="#ffffff" fill-opacity="1"><g transform="translate(206.020647, 279.647357)"><g><path d="M 5.140625 0 L 4.421875 0 L 3.890625 -1.5625 L 1.46875 -1.5625 L 0.9375 0 L 0.234375 0 L 2.21875 -5.71875 L 3.15625 -5.71875 Z M 2.625 -5.015625 L 1.65625 -2.125 L 3.703125 -2.125 L 2.734375 -5.015625 Z M 2.625 -5.015625 "/></g></g></g><g fill="#ffffff" fill-opacity="1"><g transform="translate(216.115813, 279.647357)"><g><path d="M 2.90625 -5.71875 C 3.300781 -5.71875 3.640625 -5.644531 3.921875 -5.5 C 4.203125 -5.363281 4.414062 -5.160156 4.5625 -4.890625 C 4.707031 -4.628906 4.78125 -4.320312 4.78125 -3.96875 C 4.78125 -3.613281 4.707031 -3.304688 4.5625 -3.046875 C 4.414062 -2.785156 4.203125 -2.582031 3.921875 -2.4375 C 3.640625 -2.300781 3.300781 -2.234375 2.90625 -2.234375 L 1.53125 -2.234375 L 1.53125 0 L 0.859375 0 L 0.859375 -5.71875 Z M 2.890625 -2.8125 C 3.679688 -2.8125 4.078125 -3.195312 4.078125 -3.96875 C 4.078125 -4.75 3.679688 -5.140625 2.890625 -5.140625 L 1.53125 -5.140625 L 1.53125 -2.8125 Z M 2.890625 -2.8125 "/></g></g></g><g fill="#ffffff" fill-opacity="1"><g transform="translate(226.050823, 279.647357)"><g><path d="M 4.5 -3.390625 L 4.5 -5.71875 L 5.171875 -5.71875 L 5.171875 0 L 4.5 0 L 4.5 -2.828125 L 1.53125 -2.828125 L 1.53125 0 L 0.859375 0 L 0.859375 -5.71875 L 1.53125 -5.71875 L 1.53125 -3.390625 Z M 4.5 -3.390625 "/></g></g></g><g fill="#ffffff" fill-opacity="1"><g transform="translate(236.817857, 279.647357)"><g><path d="M 2.796875 0 L 2.125 0 L 2.125 -2.25 L 0.15625 -5.71875 L 0.890625 -5.71875 L 2.421875 -3.03125 L 2.515625 -3.03125 L 4.046875 -5.71875 L 4.765625 -5.71875 L 2.796875 -2.25 Z M 2.796875 0 "/></g></g></g></svg>